<?xml version="1.0" encoding="utf-8" standalone="no"?>
<!DOCTYPE svg PUBLIC "-//W3C//DTD SVG 1.1//EN"
  "http://www.w3.org/Graphics/SVG/1.1/DTD/svg11.dtd">
<svg xmlns:xlink="http://www.w3.org/1999/xlink" width="756.761854pt" height="251.926025pt" viewBox="0 0 756.761854 251.926025" xmlns="http://www.w3.org/2000/svg" version="1.1">
 <metadata>
  <rdf:RDF xmlns:dc="http://purl.org/dc/elements/1.1/" xmlns:cc="http://creativecommons.org/ns#" xmlns:rdf="http://www.w3.org/1999/02/22-rdf-syntax-ns#">
   <cc:Work>
    <dc:type rdf:resource="http://purl.org/dc/dcmitype/StillImage"/>
    <dc:date>2025-01-21T09:21:13.736176</dc:date>
    <dc:format>image/svg+xml</dc:format>
    <dc:creator>
     <cc:Agent>
      <dc:title>Matplotlib v3.5.1, https://matplotlib.org/</dc:title>
     </cc:Agent>
    </dc:creator>
   </cc:Work>
  </rdf:RDF>
 </metadata>
 <defs>
  <style type="text/css">*{stroke-linejoin: round; stroke-linecap: butt}</style>
 </defs>
 <g id="figure_1">
  <g id="patch_1">
   <path d="M 0 251.926025 
L 756.761854 251.926025 
L 756.761854 0 
L 0 0 
z
" style="fill: #ffffff"/>
  </g>
  <g id="axes_1">
   <g id="patch_2">
    <path d="M 64.832 174.510051 
L 261.773176 174.510051 
L 261.773176 8.190051 
L 64.832 8.190051 
z
" style="fill: #ffffff"/>
   </g>
   <g id="matplotlib.axis_1">
    <g id="xtick_1">
     <g id="line2d_1">
      <defs>
       <path id="m7cfedcf4f9" d="M 0 0 
L 0 6 
" style="stroke: #000000; stroke-width: 1.25"/>
      </defs>
      <g>
       <use xlink:href="#m7cfedcf4f9" x="76.270503" y="179.510051" style="stroke: #000000; stroke-width: 1.25"/>
      </g>
     </g>
     <g id="text_1">
      <!-- 20 -->
      <g transform="translate(72.907414 207.97956)rotate(-45)scale(0.132 -0.132)">
       <defs>
        <path id="DejaVuSans-32" d="M 1228 531 
L 3431 531 
L 3431 0 
L 469 0 
L 469 531 
Q 828 903 1448 1529 
Q 2069 2156 2228 2338 
Q 2531 2678 2651 2914 
Q 2772 3150 2772 3378 
Q 2772 3750 2511 3984 
Q 2250 4219 1831 4219 
Q 1534 4219 1204 4116 
Q 875 4013 500 3803 
L 500 4441 
Q 881 4594 1212 4672 
Q 1544 4750 1819 4750 
Q 2544 4750 2975 4387 
Q 3406 4025 3406 3419 
Q 3406 3131 3298 2873 
Q 3191 2616 2906 2266 
Q 2828 2175 2409 1742 
Q 1991 1309 1228 531 
z
" transform="scale(0.015625)"/>
        <path id="DejaVuSans-30" d="M 2034 4250 
Q 1547 4250 1301 3770 
Q 1056 3291 1056 2328 
Q 1056 1369 1301 889 
Q 1547 409 2034 409 
Q 2525 409 2770 889 
Q 3016 1369 3016 2328 
Q 3016 3291 2770 3770 
Q 2525 4250 2034 4250 
z
M 2034 4750 
Q 2819 4750 3233 4129 
Q 3647 3509 3647 2328 
Q 3647 1150 3233 529 
Q 2819 -91 2034 -91 
Q 1250 -91 836 529 
Q 422 1150 422 2328 
Q 422 3509 836 4129 
Q 1250 4750 2034 4750 
z
" transform="scale(0.015625)"/>
       </defs>
       <use xlink:href="#DejaVuSans-32"/>
       <use xlink:href="#DejaVuSans-30" x="63.623047"/>
      </g>
     </g>
    </g>
    <g id="xtick_2">
     <g id="line2d_2">
      <g>
       <use xlink:href="#m7cfedcf4f9" x="126.003123" y="179.510051" style="stroke: #000000; stroke-width: 1.25"/>
      </g>
     </g>
     <g id="text_2">
      <!-- 40 -->
      <g transform="translate(122.640035 207.97956)rotate(-45)scale(0.132 -0.132)">
       <defs>
        <path id="DejaVuSans-34" d="M 2419 4116 
L 825 1625 
L 2419 1625 
L 2419 4116 
z
M 2253 4666 
L 3047 4666 
L 3047 1625 
L 3713 1625 
L 3713 1100 
L 3047 1100 
L 3047 0 
L 2419 0 
L 2419 1100 
L 313 1100 
L 313 1709 
L 2253 4666 
z
" transform="scale(0.015625)"/>
       </defs>
       <use xlink:href="#DejaVuSans-34"/>
       <use xlink:href="#DejaVuSans-30" x="63.623047"/>
      </g>
     </g>
    </g>
    <g id="xtick_3">
     <g id="line2d_3">
      <g>
       <use xlink:href="#m7cfedcf4f9" x="175.735743" y="179.510051" style="stroke: #000000; stroke-width: 1.25"/>
      </g>
     </g>
     <g id="text_3">
      <!-- 60 -->
      <g transform="translate(172.372655 207.97956)rotate(-45)scale(0.132 -0.132)">
       <defs>
        <path id="DejaVuSans-36" d="M 2113 2584 
Q 1688 2584 1439 2293 
Q 1191 2003 1191 1497 
Q 1191 994 1439 701 
Q 1688 409 2113 409 
Q 2538 409 2786 701 
Q 3034 994 3034 1497 
Q 3034 2003 2786 2293 
Q 2538 2584 2113 2584 
z
M 3366 4563 
L 3366 3988 
Q 3128 4100 2886 4159 
Q 2644 4219 2406 4219 
Q 1781 4219 1451 3797 
Q 1122 3375 1075 2522 
Q 1259 2794 1537 2939 
Q 1816 3084 2150 3084 
Q 2853 3084 3261 2657 
Q 3669 2231 3669 1497 
Q 3669 778 3244 343 
Q 2819 -91 2113 -91 
Q 1303 -91 875 529 
Q 447 1150 447 2328 
Q 447 3434 972 4092 
Q 1497 4750 2381 4750 
Q 2619 4750 2861 4703 
Q 3103 4656 3366 4563 
z
" transform="scale(0.015625)"/>
       </defs>
       <use xlink:href="#DejaVuSans-36"/>
       <use xlink:href="#DejaVuSans-30" x="63.623047"/>
      </g>
     </g>
    </g>
    <g id="xtick_4">
     <g id="line2d_4">
      <g>
       <use xlink:href="#m7cfedcf4f9" x="225.468364" y="179.510051" style="stroke: #000000; stroke-width: 1.25"/>
      </g>
     </g>
     <g id="text_4">
      <!-- 80 -->
      <g transform="translate(222.105275 207.97956)rotate(-45)scale(0.132 -0.132)">
       <defs>
        <path id="DejaVuSans-38" d="M 2034 2216 
Q 1584 2216 1326 1975 
Q 1069 1734 1069 1313 
Q 1069 891 1326 650 
Q 1584 409 2034 409 
Q 2484 409 2743 651 
Q 3003 894 3003 1313 
Q 3003 1734 2745 1975 
Q 2488 2216 2034 2216 
z
M 1403 2484 
Q 997 2584 770 2862 
Q 544 3141 544 3541 
Q 544 4100 942 4425 
Q 1341 4750 2034 4750 
Q 2731 4750 3128 4425 
Q 3525 4100 3525 3541 
Q 3525 3141 3298 2862 
Q 3072 2584 2669 2484 
Q 3125 2378 3379 2068 
Q 3634 1759 3634 1313 
Q 3634 634 3220 271 
Q 2806 -91 2034 -91 
Q 1263 -91 848 271 
Q 434 634 434 1313 
Q 434 1759 690 2068 
Q 947 2378 1403 2484 
z
M 1172 3481 
Q 1172 3119 1398 2916 
Q 1625 2713 2034 2713 
Q 2441 2713 2670 2916 
Q 2900 3119 2900 3481 
Q 2900 3844 2670 4047 
Q 2441 4250 2034 4250 
Q 1625 4250 1398 4047 
Q 1172 3844 1172 3481 
z
" transform="scale(0.015625)"/>
       </defs>
       <use xlink:href="#DejaVuSans-38"/>
       <use xlink:href="#DejaVuSans-30" x="63.623047"/>
      </g>
     </g>
    </g>
    <g id="text_5">
     <!-- age -->
     <g transform="translate(149.889213 224.862451)scale(0.144 -0.144)">
      <defs>
       <path id="DejaVuSans-61" d="M 2194 1759 
Q 1497 1759 1228 1600 
Q 959 1441 959 1056 
Q 959 750 1161 570 
Q 1363 391 1709 391 
Q 2188 391 2477 730 
Q 2766 1069 2766 1631 
L 2766 1759 
L 2194 1759 
z
M 3341 1997 
L 3341 0 
L 2766 0 
L 2766 531 
Q 2569 213 2275 61 
Q 1981 -91 1556 -91 
Q 1019 -91 701 211 
Q 384 513 384 1019 
Q 384 1609 779 1909 
Q 1175 2209 1959 2209 
L 2766 2209 
L 2766 2266 
Q 2766 2663 2505 2880 
Q 2244 3097 1772 3097 
Q 1472 3097 1187 3025 
Q 903 2953 641 2809 
L 641 3341 
Q 956 3463 1253 3523 
Q 1550 3584 1831 3584 
Q 2591 3584 2966 3190 
Q 3341 2797 3341 1997 
z
" transform="scale(0.015625)"/>
       <path id="DejaVuSans-67" d="M 2906 1791 
Q 2906 2416 2648 2759 
Q 2391 3103 1925 3103 
Q 1463 3103 1205 2759 
Q 947 2416 947 1791 
Q 947 1169 1205 825 
Q 1463 481 1925 481 
Q 2391 481 2648 825 
Q 2906 1169 2906 1791 
z
M 3481 434 
Q 3481 -459 3084 -895 
Q 2688 -1331 1869 -1331 
Q 1566 -1331 1297 -1286 
Q 1028 -1241 775 -1147 
L 775 -588 
Q 1028 -725 1275 -790 
Q 1522 -856 1778 -856 
Q 2344 -856 2625 -561 
Q 2906 -266 2906 331 
L 2906 616 
Q 2728 306 2450 153 
Q 2172 0 1784 0 
Q 1141 0 747 490 
Q 353 981 353 1791 
Q 353 2603 747 3093 
Q 1141 3584 1784 3584 
Q 2172 3584 2450 3431 
Q 2728 3278 2906 2969 
L 2906 3500 
L 3481 3500 
L 3481 434 
z
" transform="scale(0.015625)"/>
       <path id="DejaVuSans-65" d="M 3597 1894 
L 3597 1613 
L 953 1613 
Q 991 1019 1311 708 
Q 1631 397 2203 397 
Q 2534 397 2845 478 
Q 3156 559 3463 722 
L 3463 178 
Q 3153 47 2828 -22 
Q 2503 -91 2169 -91 
Q 1331 -91 842 396 
Q 353 884 353 1716 
Q 353 2575 817 3079 
Q 1281 3584 2069 3584 
Q 2775 3584 3186 3129 
Q 3597 2675 3597 1894 
z
M 3022 2063 
Q 3016 2534 2758 2815 
Q 2500 3097 2075 3097 
Q 1594 3097 1305 2825 
Q 1016 2553 972 2059 
L 3022 2063 
z
" transform="scale(0.015625)"/>
      </defs>
      <use xlink:href="#DejaVuSans-61"/>
      <use xlink:href="#DejaVuSans-67" x="61.279297"/>
      <use xlink:href="#DejaVuSans-65" x="124.755859"/>
     </g>
    </g>
   </g>
   <g id="matplotlib.axis_2">
    <g id="ytick_1">
     <g id="line2d_5">
      <path d="M 64.832 174.510051 
L 261.773176 174.510051 
" clip-path="url(#p62c96cbcc3)" style="fill: none; stroke-dasharray: 3.7,1.6; stroke-dashoffset: 0; stroke: #b0b0b0"/>
     </g>
     <g id="line2d_6">
      <defs>
       <path id="mf24b6079bb" d="M 0 0 
L -6 0 
" style="stroke: #000000; stroke-width: 1.25"/>
      </defs>
      <g>
       <use xlink:href="#mf24b6079bb" x="59.832" y="174.510051" style="stroke: #000000; stroke-width: 1.25"/>
      </g>
     </g>
     <g id="text_6">
      <!-- 0 -->
      <g transform="translate(41.9335 179.525019)scale(0.132 -0.132)">
       <use xlink:href="#DejaVuSans-30"/>
      </g>
     </g>
    </g>
    <g id="ytick_2">
     <g id="line2d_7">
      <path d="M 64.832 142.051034 
L 261.773176 142.051034 
" clip-path="url(#p62c96cbcc3)" style="fill: none; stroke-dasharray: 3.7,1.6; stroke-dashoffset: 0; stroke: #b0b0b0"/>
     </g>
     <g id="line2d_8">
      <g>
       <use xlink:href="#mf24b6079bb" x="59.832" y="142.051034" style="stroke: #000000; stroke-width: 1.25"/>
      </g>
     </g>
     <g id="text_7">
      <!-- 25 -->
      <g transform="translate(33.535 147.066003)scale(0.132 -0.132)">
       <defs>
        <path id="DejaVuSans-35" d="M 691 4666 
L 3169 4666 
L 3169 4134 
L 1269 4134 
L 1269 2991 
Q 1406 3038 1543 3061 
Q 1681 3084 1819 3084 
Q 2600 3084 3056 2656 
Q 3513 2228 3513 1497 
Q 3513 744 3044 326 
Q 2575 -91 1722 -91 
Q 1428 -91 1123 -41 
Q 819 9 494 109 
L 494 744 
Q 775 591 1075 516 
Q 1375 441 1709 441 
Q 2250 441 2565 725 
Q 2881 1009 2881 1497 
Q 2881 1984 2565 2268 
Q 2250 2553 1709 2553 
Q 1456 2553 1204 2497 
Q 953 2441 691 2322 
L 691 4666 
z
" transform="scale(0.015625)"/>
       </defs>
       <use xlink:href="#DejaVuSans-32"/>
       <use xlink:href="#DejaVuSans-35" x="63.623047"/>
      </g>
     </g>
    </g>
    <g id="ytick_3">
     <g id="line2d_9">
      <path d="M 64.832 109.592018 
L 261.773176 109.592018 
" clip-path="url(#p62c96cbcc3)" style="fill: none; stroke-dasharray: 3.7,1.6; stroke-dashoffset: 0; stroke: #b0b0b0"/>
     </g>
     <g id="line2d_10">
      <g>
       <use xlink:href="#mf24b6079bb" x="59.832" y="109.592018" style="stroke: #000000; stroke-width: 1.25"/>
      </g>
     </g>
     <g id="text_8">
      <!-- 50 -->
      <g transform="translate(33.535 114.606987)scale(0.132 -0.132)">
       <use xlink:href="#DejaVuSans-35"/>
       <use xlink:href="#DejaVuSans-30" x="63.623047"/>
      </g>
     </g>
    </g>
    <g id="ytick_4">
     <g id="line2d_11">
      <path d="M 64.832 77.133002 
L 261.773176 77.133002 
" clip-path="url(#p62c96cbcc3)" style="fill: none; stroke-dasharray: 3.7,1.6; stroke-dashoffset: 0; stroke: #b0b0b0"/>
     </g>
     <g id="line2d_12">
      <g>
       <use xlink:href="#mf24b6079bb" x="59.832" y="77.133002" style="stroke: #000000; stroke-width: 1.25"/>
      </g>
     </g>
     <g id="text_9">
      <!-- 75 -->
      <g transform="translate(33.535 82.14797)scale(0.132 -0.132)">
       <defs>
        <path id="DejaVuSans-37" d="M 525 4666 
L 3525 4666 
L 3525 4397 
L 1831 0 
L 1172 0 
L 2766 4134 
L 525 4134 
L 525 4666 
z
" transform="scale(0.015625)"/>
       </defs>
       <use xlink:href="#DejaVuSans-37"/>
       <use xlink:href="#DejaVuSans-35" x="63.623047"/>
      </g>
     </g>
    </g>
    <g id="ytick_5">
     <g id="line2d_13">
      <path d="M 64.832 44.673985 
L 261.773176 44.673985 
" clip-path="url(#p62c96cbcc3)" style="fill: none; stroke-dasharray: 3.7,1.6; stroke-dashoffset: 0; stroke: #b0b0b0"/>
     </g>
     <g id="line2d_14">
      <g>
       <use xlink:href="#mf24b6079bb" x="59.832" y="44.673985" style="stroke: #000000; stroke-width: 1.25"/>
      </g>
     </g>
     <g id="text_10">
      <!-- 100 -->
      <g transform="translate(25.1365 49.688954)scale(0.132 -0.132)">
       <defs>
        <path id="DejaVuSans-31" d="M 794 531 
L 1825 531 
L 1825 4091 
L 703 3866 
L 703 4441 
L 1819 4666 
L 2450 4666 
L 2450 531 
L 3481 531 
L 3481 0 
L 794 0 
L 794 531 
z
" transform="scale(0.015625)"/>
       </defs>
       <use xlink:href="#DejaVuSans-31"/>
       <use xlink:href="#DejaVuSans-30" x="63.623047"/>
       <use xlink:href="#DejaVuSans-30" x="127.246094"/>
      </g>
     </g>
    </g>
    <g id="ytick_6">
     <g id="line2d_15">
      <path d="M 64.832 12.214969 
L 261.773176 12.214969 
" clip-path="url(#p62c96cbcc3)" style="fill: none; stroke-dasharray: 3.7,1.6; stroke-dashoffset: 0; stroke: #b0b0b0"/>
     </g>
     <g id="line2d_16">
      <g>
       <use xlink:href="#mf24b6079bb" x="59.832" y="12.214969" style="stroke: #000000; stroke-width: 1.25"/>
      </g>
     </g>
     <g id="text_11">
      <!-- 125 -->
      <g transform="translate(25.1365 17.229938)scale(0.132 -0.132)">
       <use xlink:href="#DejaVuSans-31"/>
       <use xlink:href="#DejaVuSans-32" x="63.623047"/>
       <use xlink:href="#DejaVuSans-35" x="127.246094"/>
      </g>
     </g>
    </g>
    <g id="text_12">
     <!-- Count -->
     <g transform="translate(18.14175 112.731801)rotate(-90)scale(0.144 -0.144)">
      <defs>
       <path id="DejaVuSans-43" d="M 4122 4306 
L 4122 3641 
Q 3803 3938 3442 4084 
Q 3081 4231 2675 4231 
Q 1875 4231 1450 3742 
Q 1025 3253 1025 2328 
Q 1025 1406 1450 917 
Q 1875 428 2675 428 
Q 3081 428 3442 575 
Q 3803 722 4122 1019 
L 4122 359 
Q 3791 134 3420 21 
Q 3050 -91 2638 -91 
Q 1578 -91 968 557 
Q 359 1206 359 2328 
Q 359 3453 968 4101 
Q 1578 4750 2638 4750 
Q 3056 4750 3426 4639 
Q 3797 4528 4122 4306 
z
" transform="scale(0.015625)"/>
       <path id="DejaVuSans-6f" d="M 1959 3097 
Q 1497 3097 1228 2736 
Q 959 2375 959 1747 
Q 959 1119 1226 758 
Q 1494 397 1959 397 
Q 2419 397 2687 759 
Q 2956 1122 2956 1747 
Q 2956 2369 2687 2733 
Q 2419 3097 1959 3097 
z
M 1959 3584 
Q 2709 3584 3137 3096 
Q 3566 2609 3566 1747 
Q 3566 888 3137 398 
Q 2709 -91 1959 -91 
Q 1206 -91 779 398 
Q 353 888 353 1747 
Q 353 2609 779 3096 
Q 1206 3584 1959 3584 
z
" transform="scale(0.015625)"/>
       <path id="DejaVuSans-75" d="M 544 1381 
L 544 3500 
L 1119 3500 
L 1119 1403 
Q 1119 906 1312 657 
Q 1506 409 1894 409 
Q 2359 409 2629 706 
Q 2900 1003 2900 1516 
L 2900 3500 
L 3475 3500 
L 3475 0 
L 2900 0 
L 2900 538 
Q 2691 219 2414 64 
Q 2138 -91 1772 -91 
Q 1169 -91 856 284 
Q 544 659 544 1381 
z
M 1991 3584 
L 1991 3584 
z
" transform="scale(0.015625)"/>
       <path id="DejaVuSans-6e" d="M 3513 2113 
L 3513 0 
L 2938 0 
L 2938 2094 
Q 2938 2591 2744 2837 
Q 2550 3084 2163 3084 
Q 1697 3084 1428 2787 
Q 1159 2491 1159 1978 
L 1159 0 
L 581 0 
L 581 3500 
L 1159 3500 
L 1159 2956 
Q 1366 3272 1645 3428 
Q 1925 3584 2291 3584 
Q 2894 3584 3203 3211 
Q 3513 2838 3513 2113 
z
" transform="scale(0.015625)"/>
       <path id="DejaVuSans-74" d="M 1172 4494 
L 1172 3500 
L 2356 3500 
L 2356 3053 
L 1172 3053 
L 1172 1153 
Q 1172 725 1289 603 
Q 1406 481 1766 481 
L 2356 481 
L 2356 0 
L 1766 0 
Q 1100 0 847 248 
Q 594 497 594 1153 
L 594 3053 
L 172 3053 
L 172 3500 
L 594 3500 
L 594 4494 
L 1172 4494 
z
" transform="scale(0.015625)"/>
      </defs>
      <use xlink:href="#DejaVuSans-43"/>
      <use xlink:href="#DejaVuSans-6f" x="69.824219"/>
      <use xlink:href="#DejaVuSans-75" x="131.005859"/>
      <use xlink:href="#DejaVuSans-6e" x="194.384766"/>
      <use xlink:href="#DejaVuSans-74" x="257.763672"/>
     </g>
    </g>
   </g>
   <g id="LineCollection_1">
    <path d="M 113.569968 174.510051 
L 113.569968 122.575624 
" clip-path="url(#p62c96cbcc3)" style="fill: none; stroke: #000000; stroke-width: 3"/>
   </g>
   <g id="patch_3">
    <path d="M 59.832 174.510051 
L 59.832 8.190051 
" style="fill: none; stroke: #000000; stroke-width: 1.25; stroke-linejoin: miter; stroke-linecap: square"/>
   </g>
   <g id="patch_4">
    <path d="M 64.832 179.510051 
L 261.773176 179.510051 
" style="fill: none; stroke: #000000; stroke-width: 1.25; stroke-linejoin: miter; stroke-linecap: square"/>
   </g>
   <g id="text_13">
    <!-- Median = 35 -->
    <g transform="translate(118.54323 135.559231)scale(0.144 -0.144)">
     <defs>
      <path id="DejaVuSans-4d" d="M 628 4666 
L 1569 4666 
L 2759 1491 
L 3956 4666 
L 4897 4666 
L 4897 0 
L 4281 0 
L 4281 4097 
L 3078 897 
L 2444 897 
L 1241 4097 
L 1241 0 
L 628 0 
L 628 4666 
z
" transform="scale(0.015625)"/>
      <path id="DejaVuSans-64" d="M 2906 2969 
L 2906 4863 
L 3481 4863 
L 3481 0 
L 2906 0 
L 2906 525 
Q 2725 213 2448 61 
Q 2172 -91 1784 -91 
Q 1150 -91 751 415 
Q 353 922 353 1747 
Q 353 2572 751 3078 
Q 1150 3584 1784 3584 
Q 2172 3584 2448 3432 
Q 2725 3281 2906 2969 
z
M 947 1747 
Q 947 1113 1208 752 
Q 1469 391 1925 391 
Q 2381 391 2643 752 
Q 2906 1113 2906 1747 
Q 2906 2381 2643 2742 
Q 2381 3103 1925 3103 
Q 1469 3103 1208 2742 
Q 947 2381 947 1747 
z
" transform="scale(0.015625)"/>
      <path id="DejaVuSans-69" d="M 603 3500 
L 1178 3500 
L 1178 0 
L 603 0 
L 603 3500 
z
M 603 4863 
L 1178 4863 
L 1178 4134 
L 603 4134 
L 603 4863 
z
" transform="scale(0.015625)"/>
      <path id="DejaVuSans-20" transform="scale(0.015625)"/>
      <path id="DejaVuSans-3d" d="M 678 2906 
L 4684 2906 
L 4684 2381 
L 678 2381 
L 678 2906 
z
M 678 1631 
L 4684 1631 
L 4684 1100 
L 678 1100 
L 678 1631 
z
" transform="scale(0.015625)"/>
      <path id="DejaVuSans-33" d="M 2597 2516 
Q 3050 2419 3304 2112 
Q 3559 1806 3559 1356 
Q 3559 666 3084 287 
Q 2609 -91 1734 -91 
Q 1441 -91 1130 -33 
Q 819 25 488 141 
L 488 750 
Q 750 597 1062 519 
Q 1375 441 1716 441 
Q 2309 441 2620 675 
Q 2931 909 2931 1356 
Q 2931 1769 2642 2001 
Q 2353 2234 1838 2234 
L 1294 2234 
L 1294 2753 
L 1863 2753 
Q 2328 2753 2575 2939 
Q 2822 3125 2822 3475 
Q 2822 3834 2567 4026 
Q 2313 4219 1838 4219 
Q 1578 4219 1281 4162 
Q 984 4106 628 3988 
L 628 4550 
Q 988 4650 1302 4700 
Q 1616 4750 1894 4750 
Q 2613 4750 3031 4423 
Q 3450 4097 3450 3541 
Q 3450 3153 3228 2886 
Q 3006 2619 2597 2516 
z
" transform="scale(0.015625)"/>
     </defs>
     <use xlink:href="#DejaVuSans-4d"/>
     <use xlink:href="#DejaVuSans-65" x="86.279297"/>
     <use xlink:href="#DejaVuSans-64" x="147.802734"/>
     <use xlink:href="#DejaVuSans-69" x="211.279297"/>
     <use xlink:href="#DejaVuSans-61" x="239.0625"/>
     <use xlink:href="#DejaVuSans-6e" x="300.341797"/>
     <use xlink:href="#DejaVuSans-20" x="363.720703"/>
     <use xlink:href="#DejaVuSans-3d" x="395.507812"/>
     <use xlink:href="#DejaVuSans-20" x="479.296875"/>
     <use xlink:href="#DejaVuSans-33" x="511.083984"/>
     <use xlink:href="#DejaVuSans-35" x="574.707031"/>
    </g>
   </g>
   <g id="patch_5">
    <path d="M 73.783872 174.510051 
L 82.735743 174.510051 
L 82.735743 138.155952 
L 73.783872 138.155952 
z
" clip-path="url(#p62c96cbcc3)" style="fill: #1f77b4; fill-opacity: 0.75; stroke: #000000; stroke-width: 0.895187; stroke-linejoin: miter"/>
   </g>
   <g id="patch_6">
    <path d="M 82.735743 174.510051 
L 91.687615 174.510051 
L 91.687615 142.051034 
L 82.735743 142.051034 
z
" clip-path="url(#p62c96cbcc3)" style="fill: #1f77b4; fill-opacity: 0.75; stroke: #000000; stroke-width: 0.895187; stroke-linejoin: miter"/>
   </g>
   <g id="patch_7">
    <path d="M 91.687615 174.510051 
L 100.639487 174.510051 
L 100.639487 157.631362 
L 91.687615 157.631362 
z
" clip-path="url(#p62c96cbcc3)" style="fill: #1f77b4; fill-opacity: 0.75; stroke: #000000; stroke-width: 0.895187; stroke-linejoin: miter"/>
   </g>
   <g id="patch_8">
    <path d="M 100.639487 174.510051 
L 109.591358 174.510051 
L 109.591358 142.051034 
L 100.639487 142.051034 
z
" clip-path="url(#p62c96cbcc3)" style="fill: #1f77b4; fill-opacity: 0.75; stroke: #000000; stroke-width: 0.895187; stroke-linejoin: miter"/>
   </g>
   <g id="patch_9">
    <path d="M 109.591358 174.510051 
L 118.54323 174.510051 
L 118.54323 155.034641 
L 109.591358 155.034641 
z
" clip-path="url(#p62c96cbcc3)" style="fill: #1f77b4; fill-opacity: 0.75; stroke: #000000; stroke-width: 0.895187; stroke-linejoin: miter"/>
   </g>
   <g id="patch_10">
    <path d="M 118.54323 174.510051 
L 127.495102 174.510051 
L 127.495102 143.349395 
L 118.54323 143.349395 
z
" clip-path="url(#p62c96cbcc3)" style="fill: #1f77b4; fill-opacity: 0.75; stroke: #000000; stroke-width: 0.895187; stroke-linejoin: miter"/>
   </g>
   <g id="patch_11">
    <path d="M 127.495102 174.510051 
L 136.446973 174.510051 
L 136.446973 164.123165 
L 127.495102 164.123165 
z
" clip-path="url(#p62c96cbcc3)" style="fill: #1f77b4; fill-opacity: 0.75; stroke: #000000; stroke-width: 0.895187; stroke-linejoin: miter"/>
   </g>
   <g id="patch_12">
    <path d="M 136.446973 174.510051 
L 145.398845 174.510051 
L 145.398845 166.719887 
L 136.446973 166.719887 
z
" clip-path="url(#p62c96cbcc3)" style="fill: #1f77b4; fill-opacity: 0.75; stroke: #000000; stroke-width: 0.895187; stroke-linejoin: miter"/>
   </g>
   <g id="patch_13">
    <path d="M 145.398845 174.510051 
L 154.350717 174.510051 
L 154.350717 165.421526 
L 145.398845 165.421526 
z
" clip-path="url(#p62c96cbcc3)" style="fill: #1f77b4; fill-opacity: 0.75; stroke: #000000; stroke-width: 0.895187; stroke-linejoin: miter"/>
   </g>
   <g id="patch_14">
    <path d="M 154.350717 174.510051 
L 163.302588 174.510051 
L 163.302588 160.228084 
L 154.350717 160.228084 
z
" clip-path="url(#p62c96cbcc3)" style="fill: #1f77b4; fill-opacity: 0.75; stroke: #000000; stroke-width: 0.895187; stroke-linejoin: miter"/>
   </g>
   <g id="patch_15">
    <path d="M 163.302588 174.510051 
L 172.25446 174.510051 
L 172.25446 161.526444 
L 163.302588 161.526444 
z
" clip-path="url(#p62c96cbcc3)" style="fill: #1f77b4; fill-opacity: 0.75; stroke: #000000; stroke-width: 0.895187; stroke-linejoin: miter"/>
   </g>
   <g id="patch_16">
    <path d="M 172.25446 174.510051 
L 181.206332 174.510051 
L 181.206332 161.526444 
L 172.25446 161.526444 
z
" clip-path="url(#p62c96cbcc3)" style="fill: #1f77b4; fill-opacity: 0.75; stroke: #000000; stroke-width: 0.895187; stroke-linejoin: miter"/>
   </g>
   <g id="patch_17">
    <path d="M 181.206332 174.510051 
L 190.158203 174.510051 
L 190.158203 166.719887 
L 181.206332 166.719887 
z
" clip-path="url(#p62c96cbcc3)" style="fill: #1f77b4; fill-opacity: 0.75; stroke: #000000; stroke-width: 0.895187; stroke-linejoin: miter"/>
   </g>
   <g id="patch_18">
    <path d="M 190.158203 174.510051 
L 199.110075 174.510051 
L 199.110075 169.316608 
L 190.158203 169.316608 
z
" clip-path="url(#p62c96cbcc3)" style="fill: #1f77b4; fill-opacity: 0.75; stroke: #000000; stroke-width: 0.895187; stroke-linejoin: miter"/>
   </g>
   <g id="patch_19">
    <path d="M 199.110075 174.510051 
L 208.061947 174.510051 
L 208.061947 171.913329 
L 199.110075 171.913329 
z
" clip-path="url(#p62c96cbcc3)" style="fill: #1f77b4; fill-opacity: 0.75; stroke: #000000; stroke-width: 0.895187; stroke-linejoin: miter"/>
   </g>
   <g id="patch_20">
    <path d="M 208.061947 174.510051 
L 217.013818 174.510051 
L 217.013818 171.913329 
L 208.061947 171.913329 
z
" clip-path="url(#p62c96cbcc3)" style="fill: #1f77b4; fill-opacity: 0.75; stroke: #000000; stroke-width: 0.895187; stroke-linejoin: miter"/>
   </g>
   <g id="patch_21">
    <path d="M 217.013818 174.510051 
L 225.96569 174.510051 
L 225.96569 171.913329 
L 217.013818 171.913329 
z
" clip-path="url(#p62c96cbcc3)" style="fill: #1f77b4; fill-opacity: 0.75; stroke: #000000; stroke-width: 0.895187; stroke-linejoin: miter"/>
   </g>
   <g id="patch_22">
    <path d="M 225.96569 174.510051 
L 234.917561 174.510051 
L 234.917561 174.510051 
L 225.96569 174.510051 
z
" clip-path="url(#p62c96cbcc3)" style="fill: #1f77b4; fill-opacity: 0.75; stroke: #000000; stroke-width: 0.895187; stroke-linejoin: miter"/>
   </g>
   <g id="patch_23">
    <path d="M 234.917561 174.510051 
L 243.869433 174.510051 
L 243.869433 174.510051 
L 234.917561 174.510051 
z
" clip-path="url(#p62c96cbcc3)" style="fill: #1f77b4; fill-opacity: 0.75; stroke: #000000; stroke-width: 0.895187; stroke-linejoin: miter"/>
   </g>
   <g id="patch_24">
    <path d="M 243.869433 174.510051 
L 252.821305 174.510051 
L 252.821305 173.21169 
L 243.869433 173.21169 
z
" clip-path="url(#p62c96cbcc3)" style="fill: #1f77b4; fill-opacity: 0.75; stroke: #000000; stroke-width: 0.895187; stroke-linejoin: miter"/>
   </g>
  </g>
  <g id="axes_2">
   <g id="patch_25">
    <path d="M 301.161412 174.510051 
L 498.102588 174.510051 
L 498.102588 8.190051 
L 301.161412 8.190051 
z
" style="fill: #ffffff"/>
   </g>
   <g id="matplotlib.axis_3">
    <g id="xtick_5">
     <g id="line2d_17">
      <g>
       <use xlink:href="#m7cfedcf4f9" x="354.872642" y="174.510051" style="stroke: #000000; stroke-width: 1.25"/>
      </g>
     </g>
     <g id="text_14">
      <!-- Female -->
      <g transform="translate(340.575141 224.848384)rotate(-45)scale(0.132 -0.132)">
       <defs>
        <path id="DejaVuSans-46" d="M 628 4666 
L 3309 4666 
L 3309 4134 
L 1259 4134 
L 1259 2759 
L 3109 2759 
L 3109 2228 
L 1259 2228 
L 1259 0 
L 628 0 
L 628 4666 
z
" transform="scale(0.015625)"/>
        <path id="DejaVuSans-6d" d="M 3328 2828 
Q 3544 3216 3844 3400 
Q 4144 3584 4550 3584 
Q 5097 3584 5394 3201 
Q 5691 2819 5691 2113 
L 5691 0 
L 5113 0 
L 5113 2094 
Q 5113 2597 4934 2840 
Q 4756 3084 4391 3084 
Q 3944 3084 3684 2787 
Q 3425 2491 3425 1978 
L 3425 0 
L 2847 0 
L 2847 2094 
Q 2847 2600 2669 2842 
Q 2491 3084 2119 3084 
Q 1678 3084 1418 2786 
Q 1159 2488 1159 1978 
L 1159 0 
L 581 0 
L 581 3500 
L 1159 3500 
L 1159 2956 
Q 1356 3278 1631 3431 
Q 1906 3584 2284 3584 
Q 2666 3584 2933 3390 
Q 3200 3197 3328 2828 
z
" transform="scale(0.015625)"/>
        <path id="DejaVuSans-6c" d="M 603 4863 
L 1178 4863 
L 1178 0 
L 603 0 
L 603 4863 
z
" transform="scale(0.015625)"/>
       </defs>
       <use xlink:href="#DejaVuSans-46"/>
       <use xlink:href="#DejaVuSans-65" x="52.019531"/>
       <use xlink:href="#DejaVuSans-6d" x="113.542969"/>
       <use xlink:href="#DejaVuSans-61" x="210.955078"/>
       <use xlink:href="#DejaVuSans-6c" x="272.234375"/>
       <use xlink:href="#DejaVuSans-65" x="300.017578"/>
      </g>
     </g>
    </g>
    <g id="xtick_6">
     <g id="line2d_18">
      <g>
       <use xlink:href="#m7cfedcf4f9" x="444.391358" y="174.510051" style="stroke: #000000; stroke-width: 1.25"/>
      </g>
     </g>
     <g id="text_15">
      <!-- Male -->
      <g transform="translate(435.912176 213.211749)rotate(-45)scale(0.132 -0.132)">
       <use xlink:href="#DejaVuSans-4d"/>
       <use xlink:href="#DejaVuSans-61" x="86.279297"/>
       <use xlink:href="#DejaVuSans-6c" x="147.558594"/>
       <use xlink:href="#DejaVuSans-65" x="175.341797"/>
      </g>
     </g>
    </g>
    <g id="text_16">
     <!-- sex -->
     <g transform="translate(387.3155 241.731275)scale(0.144 -0.144)">
      <defs>
       <path id="DejaVuSans-73" d="M 2834 3397 
L 2834 2853 
Q 2591 2978 2328 3040 
Q 2066 3103 1784 3103 
Q 1356 3103 1142 2972 
Q 928 2841 928 2578 
Q 928 2378 1081 2264 
Q 1234 2150 1697 2047 
L 1894 2003 
Q 2506 1872 2764 1633 
Q 3022 1394 3022 966 
Q 3022 478 2636 193 
Q 2250 -91 1575 -91 
Q 1294 -91 989 -36 
Q 684 19 347 128 
L 347 722 
Q 666 556 975 473 
Q 1284 391 1588 391 
Q 1994 391 2212 530 
Q 2431 669 2431 922 
Q 2431 1156 2273 1281 
Q 2116 1406 1581 1522 
L 1381 1569 
Q 847 1681 609 1914 
Q 372 2147 372 2553 
Q 372 3047 722 3315 
Q 1072 3584 1716 3584 
Q 2034 3584 2315 3537 
Q 2597 3491 2834 3397 
z
" transform="scale(0.015625)"/>
       <path id="DejaVuSans-78" d="M 3513 3500 
L 2247 1797 
L 3578 0 
L 2900 0 
L 1881 1375 
L 863 0 
L 184 0 
L 1544 1831 
L 300 3500 
L 978 3500 
L 1906 2253 
L 2834 3500 
L 3513 3500 
z
" transform="scale(0.015625)"/>
      </defs>
      <use xlink:href="#DejaVuSans-73"/>
      <use xlink:href="#DejaVuSans-65" x="52.099609"/>
      <use xlink:href="#DejaVuSans-78" x="111.873047"/>
     </g>
    </g>
   </g>
   <g id="matplotlib.axis_4">
    <g id="ytick_7">
     <g id="line2d_19">
      <path d="M 301.161412 174.510051 
L 498.102588 174.510051 
" clip-path="url(#p1500fb3fa5)" style="fill: none; stroke-dasharray: 3.7,1.6; stroke-dashoffset: 0; stroke: #b0b0b0"/>
     </g>
     <g id="line2d_20">
      <g>
       <use xlink:href="#mf24b6079bb" x="296.161412" y="174.510051" style="stroke: #000000; stroke-width: 1.25"/>
      </g>
     </g>
    </g>
    <g id="ytick_8">
     <g id="line2d_21">
      <path d="M 301.161412 142.051034 
L 498.102588 142.051034 
" clip-path="url(#p1500fb3fa5)" style="fill: none; stroke-dasharray: 3.7,1.6; stroke-dashoffset: 0; stroke: #b0b0b0"/>
     </g>
     <g id="line2d_22">
      <g>
       <use xlink:href="#mf24b6079bb" x="296.161412" y="142.051034" style="stroke: #000000; stroke-width: 1.25"/>
      </g>
     </g>
    </g>
    <g id="ytick_9">
     <g id="line2d_23">
      <path d="M 301.161412 109.592018 
L 498.102588 109.592018 
" clip-path="url(#p1500fb3fa5)" style="fill: none; stroke-dasharray: 3.7,1.6; stroke-dashoffset: 0; stroke: #b0b0b0"/>
     </g>
     <g id="line2d_24">
      <g>
       <use xlink:href="#mf24b6079bb" x="296.161412" y="109.592018" style="stroke: #000000; stroke-width: 1.25"/>
      </g>
     </g>
    </g>
    <g id="ytick_10">
     <g id="line2d_25">
      <path d="M 301.161412 77.133002 
L 498.102588 77.133002 
" clip-path="url(#p1500fb3fa5)" style="fill: none; stroke-dasharray: 3.7,1.6; stroke-dashoffset: 0; stroke: #b0b0b0"/>
     </g>
     <g id="line2d_26">
      <g>
       <use xlink:href="#mf24b6079bb" x="296.161412" y="77.133002" style="stroke: #000000; stroke-width: 1.25"/>
      </g>
     </g>
    </g>
    <g id="ytick_11">
     <g id="line2d_27">
      <path d="M 301.161412 44.673985 
L 498.102588 44.673985 
" clip-path="url(#p1500fb3fa5)" style="fill: none; stroke-dasharray: 3.7,1.6; stroke-dashoffset: 0; stroke: #b0b0b0"/>
     </g>
     <g id="line2d_28">
      <g>
       <use xlink:href="#mf24b6079bb" x="296.161412" y="44.673985" style="stroke: #000000; stroke-width: 1.25"/>
      </g>
     </g>
    </g>
    <g id="ytick_12">
     <g id="line2d_29">
      <path d="M 301.161412 12.214969 
L 498.102588 12.214969 
" clip-path="url(#p1500fb3fa5)" style="fill: none; stroke-dasharray: 3.7,1.6; stroke-dashoffset: 0; stroke: #b0b0b0"/>
     </g>
     <g id="line2d_30">
      <g>
       <use xlink:href="#mf24b6079bb" x="296.161412" y="12.214969" style="stroke: #000000; stroke-width: 1.25"/>
      </g>
     </g>
    </g>
   </g>
   <g id="patch_26">
    <path d="M 296.161412 174.510051 
L 296.161412 8.190051 
" style="fill: none; stroke: #000000; stroke-width: 1.25; stroke-linejoin: miter; stroke-linecap: square"/>
   </g>
   <g id="patch_27">
    <path d="M 310.113283 174.510051 
L 399.632 174.510051 
L 399.632 44.673985 
L 310.113283 44.673985 
z
" clip-path="url(#p1500fb3fa5)" style="fill: #1f77b4; fill-opacity: 0.75; stroke: #000000; stroke-linejoin: miter"/>
   </g>
   <g id="patch_28">
    <path d="M 399.632 174.510051 
L 489.150717 174.510051 
L 489.150717 44.673985 
L 399.632 44.673985 
z
" clip-path="url(#p1500fb3fa5)" style="fill: #1f77b4; fill-opacity: 0.75; stroke: #000000; stroke-linejoin: miter"/>
   </g>
  </g>
  <g id="axes_3">
   <g id="patch_29">
    <path d="M 537.490824 174.510051 
L 734.432 174.510051 
L 734.432 8.190051 
L 537.490824 8.190051 
z
" style="fill: #ffffff"/>
   </g>
   <g id="matplotlib.axis_5">
    <g id="xtick_7">
     <g id="line2d_31">
      <g>
       <use xlink:href="#m7cfedcf4f9" x="561.362481" y="174.510051" style="stroke: #000000; stroke-width: 1.25"/>
      </g>
     </g>
     <g id="text_17">
      <!-- White -->
      <g transform="translate(550.368275 218.241797)rotate(-45)scale(0.132 -0.132)">
       <defs>
        <path id="DejaVuSans-57" d="M 213 4666 
L 850 4666 
L 1831 722 
L 2809 4666 
L 3519 4666 
L 4500 722 
L 5478 4666 
L 6119 4666 
L 4947 0 
L 4153 0 
L 3169 4050 
L 2175 0 
L 1381 0 
L 213 4666 
z
" transform="scale(0.015625)"/>
        <path id="DejaVuSans-68" d="M 3513 2113 
L 3513 0 
L 2938 0 
L 2938 2094 
Q 2938 2591 2744 2837 
Q 2550 3084 2163 3084 
Q 1697 3084 1428 2787 
Q 1159 2491 1159 1978 
L 1159 0 
L 581 0 
L 581 4863 
L 1159 4863 
L 1159 2956 
Q 1366 3272 1645 3428 
Q 1925 3584 2291 3584 
Q 2894 3584 3203 3211 
Q 3513 2838 3513 2113 
z
" transform="scale(0.015625)"/>
       </defs>
       <use xlink:href="#DejaVuSans-57"/>
       <use xlink:href="#DejaVuSans-68" x="98.876953"/>
       <use xlink:href="#DejaVuSans-69" x="162.255859"/>
       <use xlink:href="#DejaVuSans-74" x="190.039062"/>
       <use xlink:href="#DejaVuSans-65" x="229.248047"/>
      </g>
     </g>
    </g>
    <g id="xtick_8">
     <g id="line2d_32">
      <g>
       <use xlink:href="#m7cfedcf4f9" x="591.202053" y="174.510051" style="stroke: #000000; stroke-width: 1.25"/>
      </g>
     </g>
     <g id="text_18">
      <!-- Other -->
      <g transform="translate(580.526509 217.604473)rotate(-45)scale(0.132 -0.132)">
       <defs>
        <path id="DejaVuSans-4f" d="M 2522 4238 
Q 1834 4238 1429 3725 
Q 1025 3213 1025 2328 
Q 1025 1447 1429 934 
Q 1834 422 2522 422 
Q 3209 422 3611 934 
Q 4013 1447 4013 2328 
Q 4013 3213 3611 3725 
Q 3209 4238 2522 4238 
z
M 2522 4750 
Q 3503 4750 4090 4092 
Q 4678 3434 4678 2328 
Q 4678 1225 4090 567 
Q 3503 -91 2522 -91 
Q 1538 -91 948 565 
Q 359 1222 359 2328 
Q 359 3434 948 4092 
Q 1538 4750 2522 4750 
z
" transform="scale(0.015625)"/>
        <path id="DejaVuSans-72" d="M 2631 2963 
Q 2534 3019 2420 3045 
Q 2306 3072 2169 3072 
Q 1681 3072 1420 2755 
Q 1159 2438 1159 1844 
L 1159 0 
L 581 0 
L 581 3500 
L 1159 3500 
L 1159 2956 
Q 1341 3275 1631 3429 
Q 1922 3584 2338 3584 
Q 2397 3584 2469 3576 
Q 2541 3569 2628 3553 
L 2631 2963 
z
" transform="scale(0.015625)"/>
       </defs>
       <use xlink:href="#DejaVuSans-4f"/>
       <use xlink:href="#DejaVuSans-74" x="78.710938"/>
       <use xlink:href="#DejaVuSans-68" x="117.919922"/>
       <use xlink:href="#DejaVuSans-65" x="181.298828"/>
       <use xlink:href="#DejaVuSans-72" x="242.822266"/>
      </g>
     </g>
    </g>
    <g id="xtick_9">
     <g id="line2d_33">
      <g>
       <use xlink:href="#m7cfedcf4f9" x="621.041626" y="174.510051" style="stroke: #000000; stroke-width: 1.25"/>
      </g>
     </g>
     <g id="text_19">
      <!-- Mixed -->
      <g transform="translate(609.843242 218.650151)rotate(-45)scale(0.132 -0.132)">
       <use xlink:href="#DejaVuSans-4d"/>
       <use xlink:href="#DejaVuSans-69" x="86.279297"/>
       <use xlink:href="#DejaVuSans-78" x="114.0625"/>
       <use xlink:href="#DejaVuSans-65" x="170.117188"/>
       <use xlink:href="#DejaVuSans-64" x="231.640625"/>
      </g>
     </g>
    </g>
    <g id="xtick_10">
     <g id="line2d_34">
      <g>
       <use xlink:href="#m7cfedcf4f9" x="650.881198" y="174.510051" style="stroke: #000000; stroke-width: 1.25"/>
      </g>
     </g>
     <g id="text_20">
      <!-- Asian -->
      <g transform="translate(640.719013 216.577754)rotate(-45)scale(0.132 -0.132)">
       <defs>
        <path id="DejaVuSans-41" d="M 2188 4044 
L 1331 1722 
L 3047 1722 
L 2188 4044 
z
M 1831 4666 
L 2547 4666 
L 4325 0 
L 3669 0 
L 3244 1197 
L 1141 1197 
L 716 0 
L 50 0 
L 1831 4666 
z
" transform="scale(0.015625)"/>
       </defs>
       <use xlink:href="#DejaVuSans-41"/>
       <use xlink:href="#DejaVuSans-73" x="68.408203"/>
       <use xlink:href="#DejaVuSans-69" x="120.507812"/>
       <use xlink:href="#DejaVuSans-61" x="148.291016"/>
       <use xlink:href="#DejaVuSans-6e" x="209.570312"/>
      </g>
     </g>
    </g>
    <g id="xtick_11">
     <g id="line2d_35">
      <g>
       <use xlink:href="#m7cfedcf4f9" x="680.72077" y="174.510051" style="stroke: #000000; stroke-width: 1.25"/>
      </g>
     </g>
     <g id="text_21">
      <!-- Black -->
      <g transform="translate(670.669424 216.356076)rotate(-45)scale(0.132 -0.132)">
       <defs>
        <path id="DejaVuSans-42" d="M 1259 2228 
L 1259 519 
L 2272 519 
Q 2781 519 3026 730 
Q 3272 941 3272 1375 
Q 3272 1813 3026 2020 
Q 2781 2228 2272 2228 
L 1259 2228 
z
M 1259 4147 
L 1259 2741 
L 2194 2741 
Q 2656 2741 2882 2914 
Q 3109 3088 3109 3444 
Q 3109 3797 2882 3972 
Q 2656 4147 2194 4147 
L 1259 4147 
z
M 628 4666 
L 2241 4666 
Q 2963 4666 3353 4366 
Q 3744 4066 3744 3513 
Q 3744 3084 3544 2831 
Q 3344 2578 2956 2516 
Q 3422 2416 3680 2098 
Q 3938 1781 3938 1306 
Q 3938 681 3513 340 
Q 3088 0 2303 0 
L 628 0 
L 628 4666 
z
" transform="scale(0.015625)"/>
        <path id="DejaVuSans-63" d="M 3122 3366 
L 3122 2828 
Q 2878 2963 2633 3030 
Q 2388 3097 2138 3097 
Q 1578 3097 1268 2742 
Q 959 2388 959 1747 
Q 959 1106 1268 751 
Q 1578 397 2138 397 
Q 2388 397 2633 464 
Q 2878 531 3122 666 
L 3122 134 
Q 2881 22 2623 -34 
Q 2366 -91 2075 -91 
Q 1284 -91 818 406 
Q 353 903 353 1747 
Q 353 2603 823 3093 
Q 1294 3584 2113 3584 
Q 2378 3584 2631 3529 
Q 2884 3475 3122 3366 
z
" transform="scale(0.015625)"/>
        <path id="DejaVuSans-6b" d="M 581 4863 
L 1159 4863 
L 1159 1991 
L 2875 3500 
L 3609 3500 
L 1753 1863 
L 3688 0 
L 2938 0 
L 1159 1709 
L 1159 0 
L 581 0 
L 581 4863 
z
" transform="scale(0.015625)"/>
       </defs>
       <use xlink:href="#DejaVuSans-42"/>
       <use xlink:href="#DejaVuSans-6c" x="68.603516"/>
       <use xlink:href="#DejaVuSans-61" x="96.386719"/>
       <use xlink:href="#DejaVuSans-63" x="157.666016"/>
       <use xlink:href="#DejaVuSans-6b" x="212.646484"/>
      </g>
     </g>
    </g>
    <g id="xtick_12">
     <g id="line2d_36">
      <g>
       <use xlink:href="#m7cfedcf4f9" x="710.560342" y="174.510051" style="stroke: #000000; stroke-width: 1.25"/>
      </g>
     </g>
     <g id="text_22">
      <!-- NA -->
      <g transform="translate(706.452008 204.470053)rotate(-45)scale(0.132 -0.132)">
       <defs>
        <path id="DejaVuSans-4e" d="M 628 4666 
L 1478 4666 
L 3547 763 
L 3547 4666 
L 4159 4666 
L 4159 0 
L 3309 0 
L 1241 3903 
L 1241 0 
L 628 0 
L 628 4666 
z
" transform="scale(0.015625)"/>
       </defs>
       <use xlink:href="#DejaVuSans-4e"/>
       <use xlink:href="#DejaVuSans-41" x="74.804688"/>
      </g>
     </g>
    </g>
    <g id="text_23">
     <!-- ethnicity -->
     <g transform="translate(604.539037 235.533042)scale(0.144 -0.144)">
      <defs>
       <path id="DejaVuSans-79" d="M 2059 -325 
Q 1816 -950 1584 -1140 
Q 1353 -1331 966 -1331 
L 506 -1331 
L 506 -850 
L 844 -850 
Q 1081 -850 1212 -737 
Q 1344 -625 1503 -206 
L 1606 56 
L 191 3500 
L 800 3500 
L 1894 763 
L 2988 3500 
L 3597 3500 
L 2059 -325 
z
" transform="scale(0.015625)"/>
      </defs>
      <use xlink:href="#DejaVuSans-65"/>
      <use xlink:href="#DejaVuSans-74" x="61.523438"/>
      <use xlink:href="#DejaVuSans-68" x="100.732422"/>
      <use xlink:href="#DejaVuSans-6e" x="164.111328"/>
      <use xlink:href="#DejaVuSans-69" x="227.490234"/>
      <use xlink:href="#DejaVuSans-63" x="255.273438"/>
      <use xlink:href="#DejaVuSans-69" x="310.253906"/>
      <use xlink:href="#DejaVuSans-74" x="338.037109"/>
      <use xlink:href="#DejaVuSans-79" x="377.246094"/>
     </g>
    </g>
   </g>
   <g id="matplotlib.axis_6">
    <g id="ytick_13">
     <g id="line2d_37">
      <path d="M 537.490824 174.510051 
L 734.432 174.510051 
" clip-path="url(#pb3ebfc5a2c)" style="fill: none; stroke-dasharray: 3.7,1.6; stroke-dashoffset: 0; stroke: #b0b0b0"/>
     </g>
     <g id="line2d_38">
      <g>
       <use xlink:href="#mf24b6079bb" x="532.490824" y="174.510051" style="stroke: #000000; stroke-width: 1.25"/>
      </g>
     </g>
    </g>
    <g id="ytick_14">
     <g id="line2d_39">
      <path d="M 537.490824 142.051034 
L 734.432 142.051034 
" clip-path="url(#pb3ebfc5a2c)" style="fill: none; stroke-dasharray: 3.7,1.6; stroke-dashoffset: 0; stroke: #b0b0b0"/>
     </g>
     <g id="line2d_40">
      <g>
       <use xlink:href="#mf24b6079bb" x="532.490824" y="142.051034" style="stroke: #000000; stroke-width: 1.25"/>
      </g>
     </g>
    </g>
    <g id="ytick_15">
     <g id="line2d_41">
      <path d="M 537.490824 109.592018 
L 734.432 109.592018 
" clip-path="url(#pb3ebfc5a2c)" style="fill: none; stroke-dasharray: 3.7,1.6; stroke-dashoffset: 0; stroke: #b0b0b0"/>
     </g>
     <g id="line2d_42">
      <g>
       <use xlink:href="#mf24b6079bb" x="532.490824" y="109.592018" style="stroke: #000000; stroke-width: 1.25"/>
      </g>
     </g>
    </g>
    <g id="ytick_16">
     <g id="line2d_43">
      <path d="M 537.490824 77.133002 
L 734.432 77.133002 
" clip-path="url(#pb3ebfc5a2c)" style="fill: none; stroke-dasharray: 3.7,1.6; stroke-dashoffset: 0; stroke: #b0b0b0"/>
     </g>
     <g id="line2d_44">
      <g>
       <use xlink:href="#mf24b6079bb" x="532.490824" y="77.133002" style="stroke: #000000; stroke-width: 1.25"/>
      </g>
     </g>
    </g>
    <g id="ytick_17">
     <g id="line2d_45">
      <path d="M 537.490824 44.673985 
L 734.432 44.673985 
" clip-path="url(#pb3ebfc5a2c)" style="fill: none; stroke-dasharray: 3.7,1.6; stroke-dashoffset: 0; stroke: #b0b0b0"/>
     </g>
     <g id="line2d_46">
      <g>
       <use xlink:href="#mf24b6079bb" x="532.490824" y="44.673985" style="stroke: #000000; stroke-width: 1.25"/>
      </g>
     </g>
    </g>
    <g id="ytick_18">
     <g id="line2d_47">
      <path d="M 537.490824 12.214969 
L 734.432 12.214969 
" clip-path="url(#pb3ebfc5a2c)" style="fill: none; stroke-dasharray: 3.7,1.6; stroke-dashoffset: 0; stroke: #b0b0b0"/>
     </g>
     <g id="line2d_48">
      <g>
       <use xlink:href="#mf24b6079bb" x="532.490824" y="12.214969" style="stroke: #000000; stroke-width: 1.25"/>
      </g>
     </g>
    </g>
   </g>
   <g id="patch_30">
    <path d="M 532.490824 174.510051 
L 532.490824 8.190051 
" style="fill: none; stroke: #000000; stroke-width: 1.25; stroke-linejoin: miter; stroke-linecap: square"/>
   </g>
   <g id="text_24">
    <!-- "Majority" (n=122) -->
    <g transform="translate(591.202053 38.182182)scale(0.144 -0.144)">
     <defs>
      <path id="DejaVuSans-22" d="M 1147 4666 
L 1147 2931 
L 616 2931 
L 616 4666 
L 1147 4666 
z
M 2328 4666 
L 2328 2931 
L 1797 2931 
L 1797 4666 
L 2328 4666 
z
" transform="scale(0.015625)"/>
      <path id="DejaVuSans-6a" d="M 603 3500 
L 1178 3500 
L 1178 -63 
Q 1178 -731 923 -1031 
Q 669 -1331 103 -1331 
L -116 -1331 
L -116 -844 
L 38 -844 
Q 366 -844 484 -692 
Q 603 -541 603 -63 
L 603 3500 
z
M 603 4863 
L 1178 4863 
L 1178 4134 
L 603 4134 
L 603 4863 
z
" transform="scale(0.015625)"/>
      <path id="DejaVuSans-28" d="M 1984 4856 
Q 1566 4138 1362 3434 
Q 1159 2731 1159 2009 
Q 1159 1288 1364 580 
Q 1569 -128 1984 -844 
L 1484 -844 
Q 1016 -109 783 600 
Q 550 1309 550 2009 
Q 550 2706 781 3412 
Q 1013 4119 1484 4856 
L 1984 4856 
z
" transform="scale(0.015625)"/>
      <path id="DejaVuSans-29" d="M 513 4856 
L 1013 4856 
Q 1481 4119 1714 3412 
Q 1947 2706 1947 2009 
Q 1947 1309 1714 600 
Q 1481 -109 1013 -844 
L 513 -844 
Q 928 -128 1133 580 
Q 1338 1288 1338 2009 
Q 1338 2731 1133 3434 
Q 928 4138 513 4856 
z
" transform="scale(0.015625)"/>
     </defs>
     <use xlink:href="#DejaVuSans-22"/>
     <use xlink:href="#DejaVuSans-4d" x="45.996094"/>
     <use xlink:href="#DejaVuSans-61" x="132.275391"/>
     <use xlink:href="#DejaVuSans-6a" x="193.554688"/>
     <use xlink:href="#DejaVuSans-6f" x="221.337891"/>
     <use xlink:href="#DejaVuSans-72" x="282.519531"/>
     <use xlink:href="#DejaVuSans-69" x="323.632812"/>
     <use xlink:href="#DejaVuSans-74" x="351.416016"/>
     <use xlink:href="#DejaVuSans-79" x="390.625"/>
     <use xlink:href="#DejaVuSans-22" x="449.804688"/>
     <use xlink:href="#DejaVuSans-20" x="495.800781"/>
     <use xlink:href="#DejaVuSans-28" x="527.587891"/>
     <use xlink:href="#DejaVuSans-6e" x="566.601562"/>
     <use xlink:href="#DejaVuSans-3d" x="629.980469"/>
     <use xlink:href="#DejaVuSans-31" x="713.769531"/>
     <use xlink:href="#DejaVuSans-32" x="777.392578"/>
     <use xlink:href="#DejaVuSans-32" x="841.015625"/>
     <use xlink:href="#DejaVuSans-29" x="904.638672"/>
    </g>
   </g>
   <g id="text_25">
    <!-- "Minority" (n=78) -->
    <g transform="translate(622.533604 106.995297)scale(0.144 -0.144)">
     <use xlink:href="#DejaVuSans-22"/>
     <use xlink:href="#DejaVuSans-4d" x="45.996094"/>
     <use xlink:href="#DejaVuSans-69" x="132.275391"/>
     <use xlink:href="#DejaVuSans-6e" x="160.058594"/>
     <use xlink:href="#DejaVuSans-6f" x="223.4375"/>
     <use xlink:href="#DejaVuSans-72" x="284.619141"/>
     <use xlink:href="#DejaVuSans-69" x="325.732422"/>
     <use xlink:href="#DejaVuSans-74" x="353.515625"/>
     <use xlink:href="#DejaVuSans-79" x="392.724609"/>
     <use xlink:href="#DejaVuSans-22" x="451.904297"/>
     <use xlink:href="#DejaVuSans-20" x="497.900391"/>
     <use xlink:href="#DejaVuSans-28" x="529.6875"/>
     <use xlink:href="#DejaVuSans-6e" x="568.701172"/>
     <use xlink:href="#DejaVuSans-3d" x="632.080078"/>
     <use xlink:href="#DejaVuSans-37" x="715.869141"/>
     <use xlink:href="#DejaVuSans-38" x="779.492188"/>
     <use xlink:href="#DejaVuSans-29" x="843.115234"/>
    </g>
   </g>
   <g id="patch_31">
    <path d="M 546.442695 174.510051 
L 576.282267 174.510051 
L 576.282267 16.110051 
L 546.442695 16.110051 
z
" clip-path="url(#pb3ebfc5a2c)" style="fill: #1f77b4; fill-opacity: 0.75; stroke: #000000; stroke-linejoin: miter"/>
   </g>
   <g id="patch_32">
    <path d="M 576.282267 174.510051 
L 606.12184 174.510051 
L 606.12184 160.228084 
L 576.282267 160.228084 
z
" clip-path="url(#pb3ebfc5a2c)" style="fill: #1f77b4; fill-opacity: 0.75; stroke: #000000; stroke-linejoin: miter"/>
   </g>
   <g id="patch_33">
    <path d="M 606.12184 174.510051 
L 635.961412 174.510051 
L 635.961412 155.034641 
L 606.12184 155.034641 
z
" clip-path="url(#pb3ebfc5a2c)" style="fill: #1f77b4; fill-opacity: 0.75; stroke: #000000; stroke-linejoin: miter"/>
   </g>
   <g id="patch_34">
    <path d="M 635.961412 174.510051 
L 665.800984 174.510051 
L 665.800984 135.559231 
L 635.961412 135.559231 
z
" clip-path="url(#pb3ebfc5a2c)" style="fill: #1f77b4; fill-opacity: 0.75; stroke: #000000; stroke-linejoin: miter"/>
   </g>
   <g id="patch_35">
    <path d="M 665.800984 174.510051 
L 695.640556 174.510051 
L 695.640556 147.244477 
L 665.800984 147.244477 
z
" clip-path="url(#pb3ebfc5a2c)" style="fill: #1f77b4; fill-opacity: 0.75; stroke: #000000; stroke-linejoin: miter"/>
   </g>
   <g id="patch_36">
    <path d="M 695.640556 174.510051 
L 725.480128 174.510051 
L 725.480128 173.21169 
L 695.640556 173.21169 
z
" clip-path="url(#pb3ebfc5a2c)" style="fill: #1f77b4; fill-opacity: 0.75; stroke: #000000; stroke-linejoin: miter"/>
   </g>
  </g>
 </g>
 <defs>
  <clipPath id="p62c96cbcc3">
   <rect x="64.832" y="8.190051" width="196.941176" height="166.32"/>
  </clipPath>
  <clipPath id="p1500fb3fa5">
   <rect x="301.161412" y="8.190051" width="196.941176" height="166.32"/>
  </clipPath>
  <clipPath id="pb3ebfc5a2c">
   <rect x="537.490824" y="8.190051" width="196.941176" height="166.32"/>
  </clipPath>
 </defs>
</svg>
